<svg xmlns="http://www.w3.org/2000/svg" width="402" height="305" viewBox="0 0 402 305">
  <defs>
    <style>
      .cls-1 {
        fill: #fff;
        fill-rule: evenodd;
      }
    </style>
  </defs>
  <path id="MoskaCss" class="cls-1" d="M235.211,0c2.286-.028,2.813.732,3.261,2.569a5.309,5.309,0,0,1,.1,1.9c-0.258,1.139-.106,2.392-0.384,3.616a29.057,29.057,0,0,0,1.055,14.559c2.54,6.755,6.917,11.432,9.015,18.746,1.409,4.909-.221,10.861-1.726,14.464a88.651,88.651,0,0,1-9.878,17.508c-1.24,1.754-2.55,3.493-3.837,5.234a21.282,21.282,0,0,0-2.014,2.569c-0.619,1.188-.287,3.053.1,4.377,0.878,3.04,1.43,6.53,2.59,9.325,0.359,0.866.7,3.074,1.726,3.14a9.685,9.685,0,0,1,1.822-.571,22.566,22.566,0,0,0,3.069-1.427,30.741,30.741,0,0,0,9.3-8.183c3.508-4.948,5.295-12.012,7.385-18.27,0.49-1.465.762-2.788,1.343-4.187a63.041,63.041,0,0,1,6.522-12.18c1.546-2.189,3.277-4.249,4.891-6.375,0.733-.965,1.86-1.707,2.59-2.664a12.643,12.643,0,0,1,2.493-2.474l1.055-1.142c1.537-1.151,2.932-2.519,4.508-3.616,1.268-.882,3.449-1.945,5.179-0.761,1.468,1,.913,3.509-0.1,4.567a32.58,32.58,0,0,1-4.316,3.426,41.58,41.58,0,0,0-4.124,4.092,37.941,37.941,0,0,0-3.452,3.331c-1.476,1.934-3.184,3.727-4.508,5.8A71.56,71.56,0,0,0,263.5,68.321c-0.983,2.36-1.561,4.736-2.4,7.232-2.029,6.05-4.033,12.109-7.385,16.842a31.673,31.673,0,0,1-9.782,8.469,51.552,51.552,0,0,1-5.275,2.379v0.19a7.5,7.5,0,0,1,1.151,1.428c1.107,1.455,2.613,2.6,3.74,4.091,0.567,0.751,1.354,1.428,1.918,2.189,1.989,2.682,3.951,5.438,5.755,8.278,2.012,3.169,3.4,6.769,5.371,9.991,1.524,2.488,3.176,4.839,4.891,7.137,0.868,1.164,1.987,2.162,2.877,3.33l1.439,1.333a19.87,19.87,0,0,0,3.836,3.711c0.825,0.618,1.472,1.569,2.3,2.188,2.174,1.622,4.163,3.423,6.33,5.043,0.863,0.646,1.537,1.64,2.4,2.284,4.737,3.549,9.328,9.781,12.18,15.225a44.257,44.257,0,0,1,3.261,9.706q0.288,2.141.575,4.282v1.141a22.142,22.142,0,0,1,.1,6.756v2.189c-0.577,2.643-.034,5.742-2.3,6.661-1.647.668-3.763-.954-4.124-1.9-0.464-1.224-.181-4.34.1-5.614,0.215-.987,0-2.061.192-2.95a17.7,17.7,0,0,0-.1-4.853l-0.1-2.379c-0.5-2.2-.677-4.367-1.342-6.375a28.725,28.725,0,0,0-10.55-14.654l-1.151-1.237c-1.584-1.187-2.827-2.714-4.412-3.9l-1.247-1.333c-2.1-1.577-3.747-3.656-5.85-5.233-0.657-.493-1.111-1.247-1.823-1.713v0.095c0.468,0.764.316,2.046,0.576,2.95,0.589,2.046.983,4.169,1.63,6.28,0.6,1.972.7,4.1,1.247,6.28,0.412,1.644.464,3.629,0.863,5.329l0.1,1.9c0.359,1.621.117,3.444,0.288,5.329a6.926,6.926,0,0,1,0,1.808c-0.209.919,0.086,2.147-.1,2.95V182.7l-0.48,4.472q-0.382,2.142-.767,4.282c-0.956,3.345-1.823,6.674-3.453,9.325-1.3,2.117-2.456,4.267-4.411,5.71a16.163,16.163,0,0,1-4.892,2.474c-2.686.813-6.383,0.261-8.631-.476-1.434-.47-2.631-0.765-3.933-1.332-4.423-1.928-7.8-5.143-11.029-8.279-1.515-1.471-3.915-3.142-4.892-5.043H226a10.191,10.191,0,0,1-1.343,2.379c-0.585.956-.977,2.04-1.535,2.95-0.337.551-.43,1.161-0.767,1.713-0.7,1.149-1.41,2.349-2.206,3.425a18.173,18.173,0,0,1-4.124,3.711c-2.908,2.115-5.6,4.095-9.5,5.329-3.814,1.208-9.232.616-12.468-.571a28.569,28.569,0,0,1-14.386-11.609,21.924,21.924,0,0,1-3.549-7.422h-0.1a22.108,22.108,0,0,0-2.014,1.713,42.548,42.548,0,0,1-12.276,10.657,30.487,30.487,0,0,1-6.522,2.664c-5.825,1.834-12.485-.917-14.962-4.186-0.722-.954-1.265-1.9-1.918-2.95a36.349,36.349,0,0,1-3.932-9.516q-0.48-2.758-.959-5.519l-0.192-2.949a28.512,28.512,0,0,1-.192-5.424,17.765,17.765,0,0,1,.1-3.235v-1.618l0.576-6.471c0.323-1.411.3-2.924,0.671-4.377,0.647-2.51,1.189-5.117,1.918-7.517q0.72-3.33,1.439-6.661h-0.1a9.383,9.383,0,0,1-2.014,1.713c-1.755,1.315-3.208,3.045-4.987,4.377-1.689,1.265-3.2,3.207-4.892,4.472a37.7,37.7,0,0,0-12.756,16.367,43.806,43.806,0,0,0-1.63,6.661c-0.23,1,.041,1.893-0.192,2.95a15.5,15.5,0,0,0-.1,4.282c0.287,1.353-.013,2.948.288,4.377a12.936,12.936,0,0,1,.192,4c-0.4,1.655-2.194,4.245-4.412,2.665-1.83-1.3-1.448-4.038-2.014-6.661v-2.379a23.072,23.072,0,0,1,.192-6.566c0.351-1.583.1-2.986,0.479-4.472,1.117-4.336,2.069-8.279,3.932-11.8a52.729,52.729,0,0,1,14.387-16.652c1.244-.929,2.3-2.212,3.548-3.14,1.836-1.365,3.451-2.916,5.275-4.282,0.629-.471,1.1-1.244,1.727-1.713a27.373,27.373,0,0,0,2.781-2.665l1.247-1.141c1.573-2.063,3.379-3.958,4.795-6.185,1.326-2.085,2.15-4.436,3.453-6.566,2.2-3.594,4.2-7.3,6.522-10.753,1.875-2.794,4.227-5.167,6.234-7.8,1.04-1.366,3.024-2.474,3.548-4.282-3.295-.68-5.981-2.782-8.344-4.473a33.434,33.434,0,0,1-9.207-9.9,23.967,23.967,0,0,1-1.343-2.95c-1.64-3.7-2.951-7.945-4.315-11.989-0.663-1.965-1.044-3.845-1.823-5.709a74.49,74.49,0,0,0-9.015-15.8c-0.523-.707-1.294-1.3-1.822-2a30.319,30.319,0,0,0-6.043-5.9c-1.641-1.2-3.7-2.272-4.891-3.9-0.986-1.349-1.071-3.6.384-4.567,1.818-1.211,4.156.589,5.275,1.332,4.059,2.7,6.974,6.441,10.358,9.8,4.57,4.539,7.763,10.227,10.454,16.652,2.462,5.88,3.8,12.4,6.33,18.175a38.99,38.99,0,0,0,4.891,7.993,22.162,22.162,0,0,0,9.207,6.851A11.746,11.746,0,0,0,167.02,98.1a33.857,33.857,0,0,0,2.685-7.041q0.48-2.331.959-4.663c0.308-1.065,1.207-3.563.672-4.948-0.441-1.142-1.7-2.08-2.4-3.045-1.65-2.272-3.276-4.571-4.891-6.851-1-1.416-1.749-2.9-2.686-4.377a60.115,60.115,0,0,1-7.864-17.6,18.8,18.8,0,0,1,.767-10.277c2.292-6.084,5.891-10.54,8.344-16.557a40.644,40.644,0,0,0,1.343-5.8l0.1-2.093a17.66,17.66,0,0,0,0-5.329c-0.422-1.854-1.444-6.811-.384-8.374,0.854-1.259,2.746-.948,4.508-0.856,0.2,0.634.7,1.2,0.959,1.808a23.429,23.429,0,0,1,.863,3.426,27.487,27.487,0,0,1,.192,7.9v1.427l-0.576,4.663a50.357,50.357,0,0,1-3.932,10.943c-1.971,3.76-4.322,6.827-5.754,11.228-0.329,1.01-1.016,3.459-.672,4.948,0.445,1.921.482,3.726,1.055,5.424a57.332,57.332,0,0,0,6.426,12.465c1.641,2.574,3.237,5.029,4.987,7.422,0.6,0.819,1.385,2.311,2.4,2.664,1.468-2.23,3.918-3.553,6.234-4.948,1.617-.973,3.777-1.311,4.8-2.855a21.973,21.973,0,0,1-3.069-2.664l-0.96-1.047a13.268,13.268,0,0,1-2.589-2.76c-0.552-.737-1.287-1.426-1.822-2.189a22.144,22.144,0,0,1-3.261-7.993c-0.793-3.382,1.125-7.3,2.3-9.135,3.81-5.952,10.228-9.128,17.647-11.514l4.124-.856,1.726-.1a11.338,11.338,0,0,1,3.741-.1c2.262,0.508,4.481.564,6.521,1.237,7.452,2.459,13.282,5.989,17.072,12.085a13.9,13.9,0,0,1,1.439,10.657,19.351,19.351,0,0,1-1.631,3.9,57.615,57.615,0,0,1-3.356,4.758,15.316,15.316,0,0,1-2.974,2.664A42.375,42.375,0,0,0,216.8,66.8a0.33,0.33,0,0,0,.1.19c1.121,1.63,3.737,2,5.467,3.045a52.575,52.575,0,0,1,4.22,3.235A5.939,5.939,0,0,0,228.21,74.6v-0.1a6.82,6.82,0,0,0,1.055-1.522c0.95-1.346,1.905-2.716,2.877-4.092a74.145,74.145,0,0,0,9.5-17.318c0.736-1.991,1.478-6.2.767-8.849-1.631-6.07-5.5-10.064-7.864-15.51a51.188,51.188,0,0,1-2.4-8.754l-0.192-3.521a29.808,29.808,0,0,1,0-7.232V6.375c0.419-1.9.36-4.086,1.343-5.424C233.749,0.33,234.549.434,235.211,0ZM169.226,108.381a4.172,4.172,0,0,1-.959.666,11.849,11.849,0,0,0-2.11,2.284l-0.672.571c-2.961,3.892-5.965,7.8-8.631,11.989-4.177,6.566-6.931,14.2-10.071,21.791-1.343,3.246-2.062,6.8-3.165,10.181-1.315,4.031-1.568,8.415-2.589,12.751-0.432,1.833-.074,3.905-0.48,5.805a18.687,18.687,0,0,0-.1,5.8v1.713l0.288,3.235c0.29,1.234.316,2.559,0.671,3.806a47.9,47.9,0,0,0,2.11,6.09c1.031,2.341,2.235,4.621,4.316,5.9,1.726,1.06,4.918.661,6.714,0a30.785,30.785,0,0,0,8.536-4.948l2.3-2.474c4.3-3.226,7.25-8.255,10.167-12.846a129.085,129.085,0,0,0,9.207-16.938c1.025-2.318,1.688-4.63,2.685-7.041a82.6,82.6,0,0,0,2.686-9.04,32.7,32.7,0,0,0,1.151-6.09c-3.092-1.918-6.07-3.96-8.92-6.09a15.285,15.285,0,0,1-2.781-2.854c-0.965-1.268-2.226-2.384-3.165-3.711A40.8,40.8,0,0,1,171.24,117.8a34.8,34.8,0,0,1-1.822-9.421h-0.192Zm63.3,0.095a29.166,29.166,0,0,1-1.438,7.9,68.132,68.132,0,0,1-2.206,6.566c-2.189,4.93-5.761,8.934-9.4,12.465a34.223,34.223,0,0,1-5.851,4.282c-0.79.488-2.879,1.26-3.069,2.189q0.576,2.758,1.151,5.519c1.28,4.146,2.139,8.335,3.741,12.179,5.309,12.738,11.452,24.591,20.524,33.59,3.1,3.075,6.344,6.229,10.838,7.9a9.353,9.353,0,0,0,7.193-.381c4.421-2.713,5.5-8.512,6.905-14.273l0.384-3.521V181.27a29.282,29.282,0,0,0-.192-8.184l-0.288-3.615c-0.3-1.27-.236-2.658-0.575-4-1.123-4.436-1.595-8.946-2.973-13.131-1.453-4.411-2.619-8.938-4.412-13.036a131.516,131.516,0,0,0-9.687-17.985c-1.72-2.7-3.5-5.182-5.371-7.707-0.6-.816-1.5-1.485-2.11-2.284C234.953,110.364,233.77,108.877,232.525,108.476ZM0.315,303H19.292V274.244l13.342,20.635h0.331l13.342-20.635V303H65.617V244.991H45.4L32.966,265.377,20.535,244.991H0.315V303ZM95.7,304.077c14.917,0,25.525-10.939,25.525-23.7v-0.165c0-12.762-10.525-23.536-25.359-23.536-14.917,0-25.524,10.939-25.524,23.7v0.166C70.337,293.3,80.862,304.077,95.7,304.077Zm0.166-15.662c-4.144,0-7.458-3.564-7.458-8.039v-0.165c0-4.31,3.066-7.873,7.293-7.873,4.144,0,7.459,3.563,7.459,8.038v0.166C103.154,284.851,100.088,288.415,95.861,288.415ZM145,304.077c12.265,0,19.64-5.718,19.64-15.579v-0.166c0-9.282-6.878-12.431-18.314-15.248-4.558-1.16-5.553-1.741-5.553-2.652v-0.166c0-.911.829-1.409,2.652-1.409,3.812,0,9.613,1.575,14.42,4.227l5.966-11.188a40.165,40.165,0,0,0-20.3-5.221c-11.768,0-19.723,5.553-19.723,15.5v0.166c0,9.364,7.044,12.43,18.48,15.248,4.558,1.16,5.387,1.74,5.387,2.652V290.4c0,1.077-.912,1.491-2.735,1.491a32.779,32.779,0,0,1-16.74-5.055L121.8,297.531A41.411,41.411,0,0,0,145,304.077ZM168.535,303h18.811v-7.624l3.729-4.807L197.622,303H217.76l-14.42-26.85,14.171-18.4H197.042l-9.7,13.922v-29.17H168.535V303Zm63.145,1.077a17.054,17.054,0,0,0,13.011-5.635V303H263.5V277.227c0-6.546-1.325-10.939-4.723-14.336-3.978-3.978-9.945-5.884-19.143-5.884a51.735,51.735,0,0,0-19.06,3.315l3.314,12.513a32.776,32.776,0,0,1,12.514-2.569c5.8,0,8.37,2.4,8.37,6.547v0.746a35.247,35.247,0,0,0-10.691-1.658c-10.524,0-17.237,5.055-17.237,14.088v0.166C216.846,299.105,222.979,304.077,231.68,304.077Zm7.459-10.856a4.2,4.2,0,0,1-4.31-4.392v-0.166c0-2.817,2.072-5.055,5.8-5.055a12.96,12.96,0,0,1,4.309.746v1.906C244.939,290.569,242.453,293.221,239.139,293.221Zm61.238,10.773a30.294,30.294,0,0,0,22.54-9.861l-1.325-1.243a28.547,28.547,0,0,1-21.132,9.447c-15.249,0-26.6-12.928-26.6-28.259v-0.166c0-15.165,11.188-28.258,26.6-28.258,10.358,0,16.242,4.309,20.883,8.784l1.243-1.243c-5.387-5.138-11.105-9.2-22.044-9.2-16.574,0-28.507,13.674-28.507,30v0.166C272.035,290.569,284.051,303.994,300.377,303.994Zm46.156-.248c8.618,0,15-4.475,15-10.939v-0.166c0-7.127-6.712-9.447-14.916-11.685-7.21-1.988-13.177-4.06-13.177-9.53v-0.165c0-4.89,5.055-8.785,12.6-8.785a23.886,23.886,0,0,1,13.425,4.475l0.994-1.491a26.064,26.064,0,0,0-14.419-4.641c-8.7,0-14.42,4.724-14.42,10.524v0.166c0,6.547,6.05,8.7,14.5,11.1,6.712,1.906,13.59,3.729,13.59,10.11v0.166c0,5.386-5.635,9.2-13.093,9.2a25.1,25.1,0,0,1-15.746-5.883l-1.077,1.408A26.877,26.877,0,0,0,346.533,303.746Zm39.776,0c8.618,0,15-4.475,15-10.939v-0.166c0-7.127-6.712-9.447-14.916-11.685-7.21-1.988-13.177-4.06-13.177-9.53v-0.165c0-4.89,5.055-8.785,12.6-8.785a23.886,23.886,0,0,1,13.425,4.475l0.994-1.491a26.064,26.064,0,0,0-14.419-4.641c-8.7,0-14.42,4.724-14.42,10.524v0.166c0,6.547,6.05,8.7,14.5,11.1,6.713,1.906,13.591,3.729,13.591,10.11v0.166c0,5.386-5.635,9.2-13.093,9.2a25.1,25.1,0,0,1-15.746-5.883l-1.077,1.408A26.877,26.877,0,0,0,386.309,303.746Z"/>
</svg>
